<svg width="1291" height="200" viewBox="0 0 1291 200" fill="none" xmlns="http://www.w3.org/2000/svg">
<path fill-rule="evenodd" clip-rule="evenodd" d="M613.103 81.8994V20.1779C612.87 20.3461 612.63 20.5024 612.381 20.6465L607.023 23.7637C606.905 23.8826 606.772 23.9855 606.627 24.0698L597.294 29.4465C597.143 29.536 596.98 29.6022 596.81 29.643L596.364 29.9C596.615 30.1285 596.845 30.3785 597.051 30.6465C597.327 31.0076 597.561 31.4015 597.745 31.8202C597.899 32.1712 598.018 32.5359 598.098 32.9087C598.185 33.3107 598.229 33.7221 598.227 34.1356V71.1005C598.226 72.1081 597.959 73.0977 597.455 73.9699C596.95 74.842 596.225 75.566 595.352 76.0692L572.915 89.0256C573.838 89.5582 574.819 90.1276 575.845 90.7234C576.445 91.0715 577.06 91.4286 577.688 91.7927C579.105 92.6137 580.588 93.4701 582.112 94.3381L589.956 98.8723C590.079 98.0173 590.396 97.2017 590.883 96.4879C591.211 96.0065 591.61 95.5799 592.066 95.2222C592.286 95.0495 592.519 94.8928 592.763 94.7538L604.605 87.9072L604.715 87.8505L612.151 83.5543C612.441 83.3861 612.681 83.1447 612.848 82.8542C613.015 82.5638 613.103 82.2345 613.103 81.8994ZM588.158 92.3084L608.32 80.2437V28.6143L602.756 31.8197C602.927 32.5801 603.012 33.3591 603.01 34.1425V71.1066C603.008 72.9534 602.52 74.7672 601.595 76.3656C600.67 77.9629 599.342 79.2891 597.744 80.2112L582.47 89.0312" fill="url(#paint0_linear_38_2)"/>
<path d="M684.293 94.7539L705.747 82.3567C706.038 82.1902 706.28 81.9492 706.447 81.6583C706.615 81.3674 706.702 81.0373 706.699 80.7017V51.5432C706.701 51.2114 706.616 50.8848 706.453 50.5962C706.289 50.3077 706.052 50.0674 705.766 49.8995C688.528 39.9659 660.934 24.0207 638.157 10.8716L619.794 0.265435C619.522 0.100532 619.212 0.00928443 618.894 0.000671844C618.576 -0.00794074 618.261 0.0663792 617.98 0.216316C617.697 0.35574 617.453 0.564029 617.271 0.822126C617.088 1.08022 616.974 1.37989 616.937 1.6937C616.937 1.63702 616.937 1.57657 616.937 1.51611V1.61435C616.937 1.71637 616.937 1.82595 616.937 1.91285V81.9032C616.938 82.241 617.028 82.5726 617.197 82.865C617.366 83.1574 617.609 83.4003 617.901 83.5696L625.337 87.843L625.435 87.9148L637.292 94.7539C638.042 95.1811 638.684 95.7738 639.17 96.4869C639.656 97.2 639.972 98.0146 640.096 98.8686C640.602 98.5815 641.108 98.2829 641.626 97.9958L642.072 97.7275C647.517 94.5838 652.931 91.4515 657.148 89.037L634.704 76.0919C633.834 75.5843 633.111 74.858 632.608 73.9852C632.105 73.1123 631.839 72.1231 631.836 71.1157V34.1471C631.835 33.2934 632.024 32.4503 632.39 31.6791C632.756 30.9079 633.29 30.2282 633.952 29.6895C634.614 29.1507 635.388 28.7666 636.218 28.5651C637.047 28.3636 637.911 28.3498 638.747 28.5247C639.344 28.6441 639.917 28.8611 640.443 29.167L685.029 54.9174L688.936 57.1844C689.807 57.686 690.531 58.4076 691.036 59.2769C691.541 60.1462 691.808 61.1329 691.812 62.138V70.122C691.811 71.1318 691.545 72.1238 691.041 72.9985C690.536 73.8731 689.81 74.5999 688.936 75.1058L661.731 90.8167L661.603 90.8734C657.178 93.4352 650.604 97.2325 643.976 101.075L643.53 101.344L617.867 116.14C617.615 116.286 617.4 116.488 617.238 116.73C617.077 116.973 616.974 117.249 616.937 117.538C616.94 117.544 616.94 117.551 616.937 117.557V198.522L619.794 200L661.977 175.817C678.16 166.473 694.26 157.189 705.743 150.536C706.032 150.369 706.271 150.128 706.437 149.839C706.603 149.55 706.69 149.222 706.688 148.888V118.751C706.691 118.415 706.604 118.084 706.437 117.792C706.27 117.501 706.027 117.259 705.735 117.092L704.704 116.499C699.089 113.253 690.599 108.356 684.262 104.687C683.523 104.26 682.888 103.674 682.405 102.97C681.921 102.267 681.6 101.464 681.466 100.621C681.332 99.7773 681.388 98.9148 681.63 98.0959C681.872 97.2771 682.294 96.5225 682.864 95.8874C683.269 95.4272 683.753 95.0433 684.293 94.7539ZM688.944 124.604C689.815 125.106 690.538 125.829 691.041 126.699C691.545 127.569 691.81 128.556 691.812 129.561V138.32C691.812 139.328 691.546 140.318 691.041 141.19C690.536 142.062 689.81 142.786 688.936 143.288L640.443 171.287C639.575 171.798 638.586 172.068 637.579 172.069C636.571 172.074 635.579 171.814 634.704 171.313C633.827 170.815 633.099 170.092 632.595 169.219C632.091 168.345 631.829 167.353 631.836 166.345V128.352C631.835 127.343 632.1 126.353 632.605 125.479C633.11 124.606 633.837 123.882 634.711 123.38L657.919 109.981C658.792 109.478 659.782 109.213 660.79 109.213C661.798 109.213 662.789 109.478 663.662 109.981L688.944 124.604Z" fill="url(#paint1_linear_38_2)"/>
<path d="M610.257 200L524.308 150.774C524.015 150.609 523.772 150.368 523.603 150.077C523.434 149.786 523.346 149.455 523.348 149.119V134.383C523.345 134.214 523.388 134.048 523.472 133.902C523.556 133.756 523.677 133.635 523.824 133.552C523.972 133.47 524.139 133.425 524.308 133.423C524.475 133.423 524.64 133.467 524.784 133.552L551.354 149.213L589.6 171.299C590.456 171.796 591.427 172.063 592.417 172.074C593.407 172.085 594.383 171.839 595.25 171.36C596.117 170.881 596.845 170.186 597.363 169.342C597.881 168.499 598.172 167.535 598.207 166.545C598.211 166.472 598.211 166.399 598.207 166.326V128.541C598.207 127.538 597.943 126.552 597.44 125.684C596.937 124.815 596.214 124.095 595.343 123.595C590.564 120.826 585.406 117.841 580.04 114.746L571.025 109.539C570.946 109.502 570.874 109.449 570.795 109.411C565.588 106.407 560.29 103.365 555.034 100.305L546.99 95.6649L546.718 95.51C538.802 90.9456 531.166 86.5436 524.304 82.5649C524.014 82.3967 523.774 82.1552 523.607 81.8648C523.44 81.5743 523.352 81.245 523.352 80.9099V51.5436C523.35 51.2104 523.435 50.8825 523.601 50.5932C523.766 50.3039 524.005 50.0634 524.293 49.8962C540.54 40.5255 566.007 25.8272 587.937 13.1505L610.264 0.265839C610.535 0.101211 610.843 0.010067 611.159 0.00145045C611.475 -0.00716613 611.788 0.0670452 612.067 0.21672C612.35 0.35992 612.593 0.570708 612.775 0.830397C612.957 1.09009 613.072 1.39065 613.11 1.70544C613.105 1.7253 613.105 1.74603 613.11 1.7659C613.11 1.7659 613.11 1.80746 613.11 1.83768C613.11 1.86791 613.11 1.87547 613.11 1.9057V12.8142C613.104 12.8606 613.104 12.9076 613.11 12.954V12.9729C613.071 13.863 612.809 14.7291 612.346 15.4907C611.884 16.2523 611.237 16.8848 610.465 17.3294L604.714 20.6961C604.571 20.7768 604.443 20.8816 604.336 21.0059L595.819 25.9179C595.661 25.9645 595.507 26.0278 595.362 26.1069L591.028 28.6158H590.998L541.122 57.4078C540.318 57.8792 539.64 58.5374 539.145 59.3267C538.649 60.116 538.352 61.0131 538.277 61.942C538.271 62.0111 538.271 62.0806 538.277 62.1498C538.273 62.2228 538.273 62.2959 538.277 62.3689V70.1186C538.277 71.1254 538.543 72.1143 539.048 72.9854C539.553 73.8565 540.279 74.579 541.152 75.0797L568.357 90.7982L568.478 90.8586C571.592 92.6534 575.748 95.0528 580.241 97.6599L612.207 116.129C612.461 116.272 612.679 116.473 612.841 116.716C613.003 116.959 613.105 117.237 613.14 117.527C613.142 117.533 613.142 117.54 613.14 117.546C613.136 117.632 613.143 117.719 613.163 117.803V198.341L610.257 200Z" fill="url(#paint2_linear_38_2)"/>
<path d="M553.142 103.633L548.528 100.988C548.361 101.765 548.032 102.498 547.562 103.139C547.091 103.779 546.491 104.313 545.8 104.706L524.32 117.103C524.03 117.272 523.789 117.513 523.622 117.803C523.455 118.094 523.367 118.423 523.367 118.758V129.689C524.533 129.455 525.744 129.66 526.768 130.264L538.281 137.065V129.561C538.283 128.559 538.546 127.576 539.043 126.706C539.541 125.837 540.256 125.113 541.119 124.604L565.259 110.623C561.232 108.315 557.166 105.964 553.142 103.633Z" fill="url(#paint3_linear_38_2)"/>
<path d="M0 174.582V114.378C0 106.664 1.76495 99.6045 5.29485 93.1984C8.82476 86.7923 13.9235 81.6936 20.5911 77.9022C27.2587 74.1108 35.299 72.2151 44.7121 72.2151C49.2879 72.2151 53.8637 72.8688 58.4395 74.1762C63.0153 75.3528 67.2643 77.4446 71.1864 80.4516C75.1085 83.3278 78.2462 87.2499 80.5995 92.2179H80.7956C83.4103 87.2499 86.6787 83.3278 90.6009 80.4516C94.523 77.4446 98.7719 75.3528 103.348 74.1762C107.924 72.8688 112.565 72.2151 117.271 72.2151C126.554 72.2151 134.529 74.1108 141.196 77.9022C147.864 81.6936 152.962 86.7923 156.492 93.1984C160.022 99.6045 161.787 106.664 161.787 114.378V174.582H143.746V114.378C143.746 109.41 142.569 104.899 140.216 100.847C137.862 96.7937 134.659 93.5906 130.606 91.2374C126.684 88.8841 122.174 87.7075 117.075 87.7075C112.107 87.7075 107.531 88.9495 103.348 91.4335C99.1641 93.7867 95.8303 96.9898 93.3463 101.043C90.9931 104.965 89.8164 109.41 89.8164 114.378V174.582H71.7747V114.378C71.7747 109.41 70.5327 104.965 68.0487 101.043C65.6954 96.9898 62.427 93.7867 58.2434 91.4335C54.1906 88.9495 49.6148 87.7075 44.516 87.7075C39.548 87.7075 35.0376 88.8841 30.9847 91.2374C27.0626 93.5906 23.9249 96.7937 21.5716 100.847C19.2184 104.899 18.0417 109.41 18.0417 114.378V174.582H0Z" fill="url(#paint4_linear_38_2)"/>
<path d="M190.36 174.582V74.5684H208.598V174.582H190.36ZM199.577 58.6838C196.309 58.6838 193.433 57.5072 190.949 55.1539C188.596 52.6699 187.419 49.7937 187.419 46.5253C187.419 43.2568 188.596 40.446 190.949 38.0927C193.433 35.6087 196.309 34.3667 199.577 34.3667C202.846 34.3667 205.657 35.6087 208.01 38.0927C210.494 40.446 211.736 43.2568 211.736 46.5253C211.736 49.7937 210.494 52.6699 208.01 55.1539C205.657 57.5072 202.846 58.6838 199.577 58.6838Z" fill="url(#paint5_linear_38_2)"/>
<path d="M285.527 174.582C275.199 174.582 265.982 172.36 257.876 167.915C249.77 163.47 243.364 157.521 238.658 150.069C233.951 142.486 231.598 133.988 231.598 124.575C231.598 115.162 233.951 106.73 238.658 99.2777C243.364 91.695 249.77 85.681 257.876 81.236C265.982 76.7909 275.199 74.5684 285.527 74.5684H297.293V90.0607H284.939C278.271 90.0607 272.257 91.6296 266.897 94.7673C261.667 97.7742 257.484 101.892 254.346 107.122C251.339 112.351 249.836 118.169 249.836 124.575C249.836 130.981 251.339 136.799 254.346 142.029C257.484 147.258 261.667 151.442 266.897 154.58C272.257 157.586 278.271 159.09 284.939 159.09H297.293V174.582H285.527Z" fill="url(#paint6_linear_38_2)"/>
<path d="M317.317 174.582V103.004C317.317 94.1136 319.801 87.1845 324.769 82.2165C329.868 77.1178 336.863 74.5684 345.753 74.5684H366.344V90.0607H349.087C344.772 90.0607 341.373 91.3027 338.889 93.7867C336.536 96.2708 335.359 99.7353 335.359 104.18V174.582H317.317Z" fill="url(#paint7_linear_38_2)"/>
<path d="M430.084 176.936C419.887 176.936 410.866 174.648 403.022 170.072C395.178 165.365 388.968 159.09 384.392 151.246C379.816 143.271 377.528 134.381 377.528 124.575C377.528 114.77 379.816 105.945 384.392 98.1011C388.968 90.1261 395.178 83.8507 403.022 79.2749C410.866 74.5684 419.887 72.2151 430.084 72.2151C440.282 72.2151 449.303 74.5684 457.147 79.2749C465.122 83.8507 471.332 90.0607 475.777 97.905C480.353 105.749 482.641 114.639 482.641 124.575C482.641 134.381 480.353 143.271 475.777 151.246C471.332 159.09 465.122 165.365 457.147 170.072C449.303 174.648 440.282 176.936 430.084 176.936ZM430.084 161.443C437.013 161.443 443.027 159.809 448.126 156.541C453.225 153.272 457.212 148.892 460.089 143.401C462.965 137.78 464.403 131.504 464.403 124.575C464.403 117.646 462.965 111.436 460.089 105.945C457.212 100.324 453.225 95.8785 448.126 92.6101C443.027 89.3417 437.013 87.7075 430.084 87.7075C423.286 87.7075 417.272 89.3417 412.043 92.6101C406.944 95.8785 402.956 100.324 400.08 105.945C397.204 111.436 395.766 117.646 395.766 124.575C395.766 131.504 397.204 137.78 400.08 143.401C402.956 148.892 406.944 153.272 412.043 156.541C417.272 159.809 423.286 161.443 430.084 161.443Z" fill="url(#paint8_linear_38_2)"/>
<path d="M751.529 174.582V159.089H799.379C802.516 159.089 805.196 158.436 807.419 157.128C809.772 155.69 811.537 153.86 812.714 151.637C813.891 149.415 814.479 147.062 814.479 144.578C814.479 142.224 813.956 140.067 812.91 138.106C811.864 136.014 810.23 134.38 808.007 133.203C805.916 131.896 803.366 131.242 800.359 131.242H780.16C773.754 131.242 768.132 130.197 763.295 128.105C758.589 125.882 754.863 122.679 752.117 118.496C749.502 114.312 748.195 109.213 748.195 103.199C748.195 98.1005 749.437 93.394 751.921 89.0797C754.405 84.7653 757.87 81.3008 762.315 78.6861C766.76 75.9406 771.858 74.5678 777.611 74.5678H823.696V90.0602H779.376C775.323 90.0602 772.12 91.3022 769.767 93.7862C767.413 96.2702 766.237 99.2118 766.237 102.611C766.237 105.879 767.413 108.756 769.767 111.24C772.251 113.593 775.715 114.77 780.16 114.77H799.379C806.569 114.77 812.583 115.946 817.42 118.299C822.388 120.522 826.114 123.79 828.598 128.105C831.213 132.419 832.521 137.714 832.521 143.989C832.521 149.35 831.213 154.383 828.598 159.089C825.984 163.665 822.323 167.391 817.617 170.267C813.041 173.144 807.68 174.582 801.536 174.582H751.529Z" fill="url(#paint9_linear_38_2)"/>
<path d="M887.567 174.582C878.676 174.582 871.682 172.032 866.583 166.934C861.615 161.835 859.131 154.906 859.131 146.146V49.4663H877.173V144.97C877.173 149.284 878.35 152.749 880.703 155.363C883.187 157.847 886.586 159.089 890.9 159.089H911.099V174.582H887.567ZM841.874 90.0602V74.5678H911.491V90.0602H841.874Z" fill="url(#paint10_linear_38_2)"/>
<path d="M932.715 174.582V103.003C932.715 94.113 935.199 87.184 940.167 82.216C945.266 77.1172 952.26 74.5678 961.151 74.5678H981.742V90.0602H964.484C960.17 90.0602 956.771 91.3022 954.287 93.7862C951.934 96.2702 950.757 99.7347 950.757 104.18V174.582H932.715Z" fill="url(#paint11_linear_38_2)"/>
<path d="M1039.99 176.935C1030.32 176.935 1021.95 174.647 1014.89 170.071C1007.83 165.365 1002.4 159.024 998.613 151.049C994.822 143.074 992.926 134.249 992.926 124.575C992.926 114.77 995.018 105.945 999.201 98.1005C1003.38 90.1256 1009.4 83.8502 1017.24 79.2744C1025.09 74.5678 1034.5 72.2146 1045.48 72.2146C1056.07 72.2146 1065.16 74.5025 1072.74 79.0783C1080.32 83.6541 1086.14 89.8641 1090.19 97.7083C1094.38 105.553 1096.47 114.312 1096.47 123.986V174.582H1078.23V154.187H1077.84C1075.88 157.978 1073.2 161.639 1069.8 165.169C1066.53 168.568 1062.41 171.379 1057.44 173.601C1052.48 175.824 1046.66 176.935 1039.99 176.935ZM1044.7 161.443C1051.23 161.443 1056.99 159.874 1061.96 156.736C1067.05 153.468 1070.98 149.023 1073.72 143.401C1076.6 137.649 1078.04 131.242 1078.04 124.183C1078.04 117.254 1076.66 111.044 1073.92 105.553C1071.3 100.062 1067.51 95.7473 1062.54 92.6096C1057.58 89.3411 1051.76 87.7069 1045.09 87.7069C1038.03 87.7069 1031.95 89.3411 1026.85 92.6096C1021.88 95.878 1018.03 100.323 1015.28 105.945C1012.67 111.436 1011.36 117.711 1011.36 124.771C1011.36 131.569 1012.67 137.779 1015.28 143.401C1017.9 148.892 1021.69 153.272 1026.66 156.54C1031.62 159.808 1037.64 161.443 1044.7 161.443Z" fill="url(#paint12_linear_38_2)"/>
<path d="M1159.32 174.582C1150.43 174.582 1143.43 172.032 1138.34 166.934C1133.37 161.835 1130.88 154.906 1130.88 146.146V49.4663H1148.92V144.97C1148.92 149.284 1150.1 152.749 1152.45 155.363C1154.94 157.847 1158.34 159.089 1162.65 159.089H1182.85V174.582H1159.32ZM1113.63 90.0602V74.5678H1183.24V90.0602H1113.63Z" fill="url(#paint13_linear_38_2)"/>
<path d="M1252.78 174.582C1241.8 174.582 1232.06 172.555 1223.56 168.503C1215.07 164.319 1208.4 158.501 1203.56 151.049C1198.85 143.466 1196.5 134.642 1196.5 124.575C1196.5 114.639 1198.53 105.749 1202.58 97.9044C1206.63 89.9295 1212.25 83.6541 1219.44 79.0783C1226.64 74.5025 1235 72.2146 1244.55 72.2146C1254.87 72.2146 1263.44 74.4371 1270.24 78.8822C1277.17 83.3272 1282.33 89.3411 1285.73 96.9239C1289.13 104.376 1290.83 112.743 1290.83 122.025C1290.83 123.464 1290.76 124.967 1290.63 126.536C1290.63 128.105 1290.5 129.477 1290.24 130.654H1215.72C1216.37 136.799 1218.4 142.028 1221.8 146.343C1225.2 150.526 1229.51 153.729 1234.74 155.952C1240.1 158.044 1245.98 159.089 1252.39 159.089H1278.47V174.582H1252.78ZM1215.52 117.907H1272.59C1272.59 115.423 1272.33 112.808 1271.81 110.063C1271.28 107.187 1270.37 104.441 1269.06 101.827C1267.75 99.0811 1265.99 96.6624 1263.76 94.5706C1261.67 92.3481 1258.99 90.5831 1255.72 89.2758C1252.59 87.9684 1248.86 87.3147 1244.55 87.3147C1239.97 87.3147 1235.92 88.2299 1232.39 90.0602C1228.99 91.7598 1226.05 94.1131 1223.56 97.12C1221.08 99.9962 1219.18 103.265 1217.88 106.925C1216.57 110.586 1215.78 114.247 1215.52 117.907Z" fill="url(#paint14_linear_38_2)"/>
<defs>
<linearGradient id="paint0_linear_38_2" x1="615.024" y1="0" x2="615.024" y2="200" gradientUnits="userSpaceOnUse">
<stop stop-color="#423EE6"/>
<stop offset="1" stop-color="#3733C0"/>
</linearGradient>
<linearGradient id="paint1_linear_38_2" x1="615.024" y1="0" x2="615.024" y2="200" gradientUnits="userSpaceOnUse">
<stop stop-color="#4641F2"/>
<stop offset="1" stop-color="#28268C"/>
</linearGradient>
<linearGradient id="paint2_linear_38_2" x1="615.024" y1="0" x2="615.024" y2="200" gradientUnits="userSpaceOnUse">
<stop stop-color="#4641F2"/>
<stop offset="1" stop-color="#28268C"/>
</linearGradient>
<linearGradient id="paint3_linear_38_2" x1="544.313" y1="100.988" x2="544.313" y2="137.065" gradientUnits="userSpaceOnUse">
<stop stop-color="#4641F2"/>
<stop offset="1" stop-color="#28268C"/>
</linearGradient>
<linearGradient id="paint4_linear_38_2" x1="241.32" y1="34.3667" x2="241.32" y2="176.936" gradientUnits="userSpaceOnUse">
<stop stop-color="#4641F2"/>
<stop offset="1" stop-color="#28268C"/>
</linearGradient>
<linearGradient id="paint5_linear_38_2" x1="241.32" y1="34.3667" x2="241.32" y2="176.936" gradientUnits="userSpaceOnUse">
<stop stop-color="#4641F2"/>
<stop offset="1" stop-color="#28268C"/>
</linearGradient>
<linearGradient id="paint6_linear_38_2" x1="241.32" y1="34.3667" x2="241.32" y2="176.936" gradientUnits="userSpaceOnUse">
<stop stop-color="#4641F2"/>
<stop offset="1" stop-color="#28268C"/>
</linearGradient>
<linearGradient id="paint7_linear_38_2" x1="241.32" y1="34.3667" x2="241.32" y2="176.936" gradientUnits="userSpaceOnUse">
<stop stop-color="#4641F2"/>
<stop offset="1" stop-color="#28268C"/>
</linearGradient>
<linearGradient id="paint8_linear_38_2" x1="241.32" y1="34.3667" x2="241.32" y2="176.936" gradientUnits="userSpaceOnUse">
<stop stop-color="#4641F2"/>
<stop offset="1" stop-color="#28268C"/>
</linearGradient>
<linearGradient id="paint9_linear_38_2" x1="1019.51" y1="49.4663" x2="1019.51" y2="176.935" gradientUnits="userSpaceOnUse">
<stop stop-color="#4641F2"/>
<stop offset="1" stop-color="#28268C"/>
</linearGradient>
<linearGradient id="paint10_linear_38_2" x1="1019.51" y1="49.4663" x2="1019.51" y2="176.935" gradientUnits="userSpaceOnUse">
<stop stop-color="#4641F2"/>
<stop offset="1" stop-color="#28268C"/>
</linearGradient>
<linearGradient id="paint11_linear_38_2" x1="1019.51" y1="49.4663" x2="1019.51" y2="176.935" gradientUnits="userSpaceOnUse">
<stop stop-color="#4641F2"/>
<stop offset="1" stop-color="#28268C"/>
</linearGradient>
<linearGradient id="paint12_linear_38_2" x1="1019.51" y1="49.4663" x2="1019.51" y2="176.935" gradientUnits="userSpaceOnUse">
<stop stop-color="#4641F2"/>
<stop offset="1" stop-color="#28268C"/>
</linearGradient>
<linearGradient id="paint13_linear_38_2" x1="1019.51" y1="49.4663" x2="1019.51" y2="176.935" gradientUnits="userSpaceOnUse">
<stop stop-color="#4641F2"/>
<stop offset="1" stop-color="#28268C"/>
</linearGradient>
<linearGradient id="paint14_linear_38_2" x1="1019.51" y1="49.4663" x2="1019.51" y2="176.935" gradientUnits="userSpaceOnUse">
<stop stop-color="#4641F2"/>
<stop offset="1" stop-color="#28268C"/>
</linearGradient>
</defs>
</svg>
