<svg width="761" height="767" viewBox="0 0 761 767" fill="none" xmlns="http://www.w3.org/2000/svg">
<path fill-rule="evenodd" clip-rule="evenodd" d="M0 320.619V426.546C0 435.234 2.37161 443.022 5.94787 446.14L371.007 763.709C376.037 768.086 382.684 768.099 387.731 763.734L755.04 446.127C758.632 443.022 761 435.222 761 426.521V320.95C761 311.421 754.494 308.329 748.418 313.583L387.731 625.519C382.684 629.884 376.037 629.868 371.007 625.491L12.6105 313.673C6.5221 308.38 0 311.077 0 320.619Z" fill="#4E1E7A"/>
<path d="M360.759 226.858L173.703 388.441C170.167 391.509 170.08 402.961 173.562 406.129L247.169 469.996C250.039 472.619 253.256 472.669 256.175 470.137L443.284 308.579C446.82 305.512 446.932 294.2 443.45 291.018L369.768 226.999C366.898 224.377 363.682 224.339 360.759 226.858Z" fill="#2799D3"/>
<path d="M369.129 1.68655L53.7151 274.461C50.1646 277.529 50.0741 288.933 53.5746 292.051L127.036 356.083C129.863 358.603 133.008 358.641 135.875 356.183L451.31 83.3713C456.24 79.1585 456.224 69.982 451.298 65.782L377.696 1.63557C375.1 -0.566281 371.7 -0.54076 369.129 1.68655Z" fill="#E3057C"/>
<path d="M610.564 227.426L302.723 493.806C299.169 496.862 299.069 508.278 302.57 511.406L376.329 575.081C379.143 577.601 382.288 577.638 385.153 575.197L694.267 307.926C697.845 304.871 697.933 293.378 694.394 290.298L622.227 227.452C618.498 224.193 614.345 224.181 610.564 227.426Z" fill="#0AABAD"/>
</svg>
