<svg width="300" height="300" viewBox="0 0 300 300" fill="none" xmlns="http://www.w3.org/2000/svg">
<rect width="300" height="300" fill="url(#paint0_linear_1_3)"/>
<path fill-rule="evenodd" clip-rule="evenodd" d="M147.591 125.737V48.3117C147.299 48.5226 146.997 48.7188 146.686 48.8994L139.965 52.8098C139.816 52.959 139.649 53.088 139.467 53.1937L127.759 59.9385C127.571 60.0507 127.366 60.1338 127.153 60.1849L126.593 60.5073C126.909 60.794 127.196 61.1075 127.454 61.4438C127.802 61.8967 128.094 62.3908 128.325 62.916C128.519 63.3564 128.667 63.8139 128.769 64.2815C128.878 64.7858 128.932 65.3018 128.93 65.8206V112.19C128.929 113.454 128.594 114.696 127.961 115.79C127.328 116.884 126.418 117.792 125.323 118.423L97.1782 134.676C98.3363 135.344 99.5666 136.058 100.854 136.806C101.606 137.242 102.377 137.69 103.165 138.147C104.943 139.177 106.804 140.251 108.715 141.34L118.555 147.028C118.709 145.955 119.107 144.932 119.717 144.037C120.129 143.433 120.63 142.898 121.201 142.449C121.477 142.232 121.77 142.036 122.076 141.862L136.931 133.273L137.068 133.202L146.396 127.813C146.76 127.602 147.062 127.299 147.271 126.934C147.481 126.57 147.591 126.157 147.591 125.737ZM116.299 138.794L141.591 123.66V58.8945L134.611 62.9155C134.825 63.8693 134.933 64.8465 134.93 65.8293V112.198C134.927 114.515 134.315 116.79 133.154 118.795C131.995 120.799 130.329 122.462 128.324 123.619L109.164 134.683" fill="white"/>
<path d="M236.893 141.862L263.806 126.31C264.171 126.102 264.474 125.799 264.684 125.434C264.894 125.069 265.003 124.655 265 124.234V87.6571C265.003 87.2408 264.897 86.8312 264.691 86.4692C264.486 86.1073 264.188 85.8058 263.829 85.5952C242.206 73.1342 207.591 53.1322 179.02 36.6376L155.984 23.333C155.643 23.1261 155.254 23.0116 154.855 23.0008C154.456 22.99 154.061 23.0833 153.709 23.2714C153.353 23.4462 153.047 23.7075 152.819 24.0313C152.59 24.3551 152.447 24.731 152.401 25.1246C152.401 25.0535 152.401 24.9777 152.401 24.9018V25.0251C152.401 25.1531 152.401 25.2905 152.401 25.3995V125.741C152.402 126.165 152.514 126.581 152.726 126.948C152.938 127.315 153.243 127.619 153.61 127.832L162.937 133.192L163.061 133.283L177.934 141.862C178.875 142.398 179.68 143.141 180.29 144.036C180.899 144.93 181.297 145.952 181.451 147.023C182.086 146.663 182.721 146.289 183.371 145.928L183.93 145.592C190.76 141.648 197.552 137.719 202.842 134.69L174.687 118.452C173.596 117.815 172.69 116.904 172.059 115.809C171.428 114.714 171.094 113.473 171.09 112.209V65.8349C171.088 64.7641 171.326 63.7064 171.785 62.7391C172.244 61.7717 172.914 60.919 173.744 60.2432C174.575 59.5674 175.546 59.0856 176.587 58.8328C177.627 58.58 178.711 58.5627 179.759 58.7821C180.508 58.9319 181.227 59.2041 181.887 59.5878L237.817 91.8897L242.718 94.7336C243.811 95.3628 244.719 96.268 245.352 97.3585C245.985 98.449 246.321 99.6866 246.325 100.948V110.963C246.324 112.23 245.991 113.474 245.358 114.571C244.725 115.668 243.814 116.58 242.718 117.215L208.591 136.923L208.43 136.994C202.88 140.207 194.633 144.971 186.319 149.791L185.76 150.128L153.567 168.689C153.25 168.872 152.981 169.125 152.778 169.429C152.576 169.733 152.447 170.08 152.401 170.443C152.404 170.45 152.404 170.459 152.401 170.466V272.031L155.984 273.885L208.9 243.55C229.2 231.828 249.397 220.182 263.801 211.836C264.163 211.626 264.464 211.325 264.672 210.962C264.88 210.599 264.988 210.187 264.986 209.769V171.964C264.99 171.542 264.881 171.127 264.671 170.762C264.461 170.396 264.158 170.093 263.791 169.883L262.497 169.139C255.454 165.068 244.804 158.925 236.855 154.323C235.927 153.787 235.131 153.051 234.524 152.168C233.918 151.286 233.516 150.279 233.348 149.221C233.18 148.163 233.25 147.081 233.553 146.054C233.857 145.027 234.385 144.08 235.101 143.284C235.609 142.706 236.215 142.225 236.893 141.862ZM242.728 179.306C243.82 179.936 244.727 180.843 245.359 181.934C245.99 183.026 246.323 184.264 246.325 185.525V196.512C246.325 197.776 245.991 199.018 245.358 200.112C244.725 201.207 243.814 202.115 242.718 202.745L181.887 237.867C180.798 238.507 179.558 238.846 178.294 238.848C177.03 238.854 175.786 238.527 174.687 237.9C173.588 237.275 172.674 236.368 172.042 235.272C171.409 234.177 171.081 232.932 171.09 231.667V184.008C171.089 182.743 171.422 181.5 172.055 180.405C172.688 179.309 173.6 178.401 174.697 177.771L203.809 160.963C204.904 160.332 206.147 159.999 207.411 159.999C208.676 159.999 209.918 160.332 211.013 160.963L242.728 179.306Z" fill="white"/>
<path d="M144.021 273.885L36.2041 212.135C35.8368 211.927 35.5315 211.625 35.3199 211.26C35.1083 210.895 34.9979 210.481 35.0002 210.059V191.573C34.9967 191.362 35.0503 191.153 35.1554 190.97C35.2606 190.786 35.4132 190.635 35.5974 190.531C35.7832 190.428 35.9916 190.372 36.2041 190.369C36.414 190.369 36.6203 190.424 36.8013 190.531L70.1317 210.177L118.108 237.881C119.182 238.505 120.4 238.84 121.642 238.854C122.884 238.867 124.108 238.559 125.196 237.958C126.283 237.358 127.196 236.486 127.846 235.427C128.497 234.369 128.861 233.16 128.905 231.919C128.91 231.827 128.91 231.735 128.905 231.644V184.246C128.906 182.987 128.573 181.75 127.943 180.661C127.312 179.571 126.405 178.668 125.313 178.041C119.317 174.567 112.847 170.822 106.116 166.941L94.8072 160.409C94.7077 160.362 94.6176 160.295 94.5181 160.248C87.9866 156.48 81.3414 152.664 74.7483 148.825L64.6572 143.004L64.3159 142.81C54.386 137.084 44.8068 131.562 36.1993 126.571C35.8358 126.36 35.534 126.058 35.3244 125.693C35.1148 125.329 35.0046 124.916 35.0049 124.495V87.6576C35.0019 87.2396 35.1095 86.8283 35.3168 86.4654C35.5241 86.1025 35.8236 85.8008 36.1851 85.591C56.5663 73.8362 88.5127 55.3983 116.023 39.4963L144.03 23.3335C144.369 23.127 144.756 23.0126 145.152 23.0018C145.549 22.991 145.942 23.0841 146.291 23.2719C146.646 23.4515 146.951 23.7159 147.179 24.0417C147.407 24.3674 147.552 24.7445 147.599 25.1393C147.593 25.1643 147.593 25.1903 147.599 25.2152C147.599 25.2152 147.599 25.2673 147.599 25.3052C147.599 25.3432 147.599 25.3526 147.599 25.3906V39.0744C147.592 39.1326 147.592 39.1916 147.599 39.2498V39.2735C147.551 40.3901 147.222 41.4765 146.642 42.4319C146.062 43.3873 145.25 44.1807 144.281 44.7385L137.067 48.9617C136.888 49.063 136.728 49.1945 136.593 49.3503L125.91 55.5121C125.711 55.5705 125.519 55.65 125.336 55.7491L119.9 58.8963H119.862L57.2963 95.0138C56.288 95.6051 55.4371 96.4308 54.8158 97.421C54.1945 98.4111 53.8211 99.5364 53.7272 100.702C53.7201 100.788 53.7201 100.875 53.7272 100.962C53.7224 101.054 53.7224 101.146 53.7272 101.237V110.959C53.7276 112.222 54.0613 113.462 54.6946 114.555C55.328 115.647 56.2385 116.554 57.3342 117.182L91.4609 136.9L91.6126 136.975C95.5182 139.227 100.732 142.237 106.368 145.507L146.466 168.675C146.786 168.855 147.058 169.107 147.262 169.412C147.465 169.717 147.594 170.065 147.637 170.429C147.64 170.437 147.64 170.445 147.637 170.453C147.632 170.561 147.641 170.669 147.666 170.775V271.804L144.021 273.885Z" fill="white"/>
<path d="M72.3741 153L66.5868 149.682C66.3771 150.657 65.9638 151.576 65.3741 152.38C64.7843 153.183 64.0314 153.853 63.1646 154.346L36.2188 169.897C35.8552 170.108 35.5535 170.411 35.3438 170.776C35.1342 171.14 35.024 171.553 35.0243 171.973V185.686C36.4865 185.392 38.0057 185.648 39.2902 186.406L53.7324 194.938V185.525C53.735 184.268 54.0645 183.034 54.6887 181.944C55.3128 180.853 56.21 179.944 57.292 179.306L87.5747 161.769C82.5221 158.872 77.422 155.924 72.3741 153Z" fill="white"/>
<defs>
<linearGradient id="paint0_linear_1_3" x1="150" y1="0" x2="150" y2="300" gradientUnits="userSpaceOnUse">
<stop stop-color="#4641F2"/>
<stop offset="1" stop-color="#28268C"/>
</linearGradient>
</defs>
</svg>
